<svg width="367" height="367" viewBox="0 0 367 367" fill="none" xmlns="http://www.w3.org/2000/svg">
<path fill-rule="evenodd" clip-rule="evenodd" d="M358.607 238.365C352.512 257.905 343.29 275.902 331.629 291.828C331.385 292.153 331.142 292.478 330.938 292.762C330.37 293.534 329.801 294.265 329.232 295.037C328.663 295.768 328.094 296.54 327.485 297.271C327.241 297.556 326.997 297.881 326.794 298.165C311.965 316.772 293.885 331.925 273.814 343.219C273.652 343.3 273.448 343.422 273.286 343.503C272.311 344.072 271.295 344.6 270.32 345.128C269.751 345.453 269.142 345.737 268.532 346.062C267.923 346.387 267.354 346.672 266.745 346.997C265.729 347.525 264.713 348.012 263.698 348.5C263.535 348.581 263.332 348.662 263.169 348.744C242.408 358.778 219.656 364.953 195.928 366.538C195.563 366.578 195.156 366.578 194.791 366.619C193.856 366.659 192.922 366.741 191.987 366.781C191.053 366.822 190.118 366.863 189.184 366.903C188.778 366.903 188.412 366.944 188.006 366.944C168.26 367.431 148.271 364.75 128.728 358.616C109.186 352.522 91.1869 343.3 75.2604 331.64C74.9353 331.397 74.6103 331.194 74.3259 330.95C73.5539 330.381 72.8226 329.812 72.0507 329.244C71.3193 328.675 70.5474 328.106 69.8161 327.497C69.5317 327.253 69.2066 327.009 68.9222 326.806C50.3142 311.978 35.1596 293.899 23.8647 273.831C23.7834 273.668 23.6616 273.465 23.5803 273.302C23.0115 272.327 22.4833 271.312 21.9551 270.337C21.6301 269.768 21.3457 269.159 21.0207 268.549C20.6956 267.94 20.4112 267.371 20.0862 266.762C19.558 265.746 19.0705 264.73 18.5829 263.715C18.5017 263.552 18.4204 263.349 18.3392 263.187C8.26318 242.386 2.04695 219.636 0.462416 195.911C0.421787 195.545 0.421787 195.139 0.381159 194.774C0.34053 193.839 0.259272 192.905 0.218643 191.97C0.178014 191.036 0.137385 190.102 0.0967557 189.167C0.0967557 188.761 0.0561267 188.395 0.0561267 187.989C-0.431421 168.245 2.25009 148.257 8.38507 128.717C14.4794 109.176 23.7022 91.1788 35.3627 75.2537C35.6065 74.9287 35.8503 74.6037 36.0534 74.3193C36.6222 73.5474 37.191 72.8162 37.7598 72.0443C38.3286 71.313 38.8974 70.5411 39.5069 69.8099C39.7506 69.5255 39.9944 69.2005 40.1976 68.9161C55.0271 50.3097 73.107 35.1564 93.1777 23.8626C93.3402 23.7813 93.5434 23.6595 93.7059 23.5782C94.681 23.0095 95.6967 22.4813 96.6718 21.9532C97.2406 21.6282 97.8501 21.3438 98.4595 21.0188C99.0283 20.6938 99.6377 20.4094 100.247 20.0844C101.263 19.5563 102.279 19.0688 103.294 18.5813C103.457 18.5 103.66 18.4188 103.823 18.3375C124.625 8.26245 147.417 2.04677 171.145 0.462376C171.51 0.42175 171.917 0.42175 172.282 0.381125C173.217 0.340499 174.151 0.259249 175.086 0.218623C176.02 0.177998 176.955 0.137372 177.889 0.0967471C178.295 0.0967471 178.661 0.0561217 179.067 0.0561217C198.813 -0.431383 218.802 2.24989 238.345 8.38432C257.888 14.4781 275.886 23.7001 291.813 35.3596C292.138 35.6033 292.463 35.8471 292.747 36.0502C293.519 36.619 294.251 37.1877 295.022 37.7565C295.754 38.3252 296.526 38.894 297.257 39.5034C297.541 39.7471 297.866 39.9909 298.151 40.194C316.759 55.0223 331.914 73.1005 343.208 93.1695C343.29 93.332 343.412 93.5351 343.493 93.6976C344.062 94.6726 344.59 95.6883 345.118 96.6633C345.443 97.232 345.727 97.8414 346.052 98.4508C346.377 99.0602 346.662 99.6289 346.987 100.238C347.515 101.254 348.003 102.27 348.49 103.285C348.571 103.448 348.653 103.651 348.734 103.813C358.769 124.573 364.945 147.323 366.529 171.048C366.57 171.414 366.57 171.82 366.611 172.186C366.651 173.12 366.733 174.055 366.773 174.989C366.814 175.923 366.854 176.858 366.895 177.792C366.895 178.198 366.936 178.564 366.936 178.97C367.464 198.836 364.742 218.824 358.607 238.365ZM132.019 90.7726C132.019 90.7726 131.775 90.8945 131.694 90.9757C109.876 103.163 93.9903 121.932 85.2551 143.423C80.989 153.864 78.4294 164.955 77.6168 176.248C80.8265 177.955 84.0768 179.498 87.449 180.839C100.816 185.755 114.508 188.355 129.216 188.761C146.117 188.517 163.181 184.252 178.986 175.476C201.007 163.289 216.974 144.439 225.791 122.826C227.131 123.76 228.472 124.776 229.772 125.792L230.016 125.995L230.26 126.198L230.341 126.239L230.666 126.523L231.479 127.214L231.519 127.254C237.289 132.21 242.205 137.979 246.186 144.398L246.227 144.479L246.268 144.561L246.308 144.601L246.349 144.682L246.39 144.764L246.471 144.886L246.511 144.967L246.552 145.048L246.715 145.292L246.755 145.373L246.796 145.454L246.837 145.536L246.877 145.617L246.918 145.698L247.04 145.901L247.08 145.982L247.121 146.064L247.162 146.145L247.202 146.226L247.243 146.307L247.283 146.389L247.324 146.47L247.365 146.551L247.405 146.632L247.446 146.714L247.487 146.795L248.055 147.77C250.168 151.589 251.915 155.529 253.296 159.551H253.337C254.353 162.436 255.165 165.401 255.815 168.408C264.957 166.417 275.724 165.361 287.994 166.255C285.922 153.864 281.656 142.042 275.561 131.357L275.439 131.154L274.789 130.057L274.749 130.017C272.473 126.076 269.954 122.379 267.232 118.845L267.192 118.763C257.888 106.698 246.308 97.0695 233.388 90.1632C233.916 82.5663 233.632 74.8881 232.454 67.2505C225.466 63.9192 213.236 60.141 200.885 58.6379C201.779 65.5442 201.941 72.4505 201.495 79.3162C178.499 75.0506 154.04 78.585 132.019 90.7726ZM163.425 147.486C147.702 156.179 130.191 158.536 113.858 155.448L114.833 155.611C120.927 140.579 131.978 127.457 147.214 118.926L147.499 118.763C162.897 110.232 180.002 107.795 196.091 110.638C196.132 110.598 187.356 134.242 163.425 147.486ZM314.484 259.612C311.762 264.284 308.836 268.793 305.708 273.099C305.667 273.14 305.627 273.181 305.627 273.221C304.936 274.156 304.245 275.049 303.555 275.984C303.108 276.552 302.661 277.121 302.214 277.69C302.051 277.893 301.889 278.096 301.726 278.299C289.538 293.453 274.586 306.128 257.725 315.593C257.481 315.715 257.238 315.878 256.994 316C256.425 316.325 255.856 316.609 255.328 316.934C254.556 317.34 253.743 317.787 252.931 318.193C252.85 318.234 252.768 318.275 252.646 318.315C233.226 328.228 211.814 333.956 189.915 334.89C189.428 334.89 188.981 334.931 188.493 334.931C187.965 334.931 187.478 334.972 186.949 334.972C178.295 335.175 169.479 334.606 160.622 333.225C153.674 332.169 146.889 330.625 140.307 328.675C139.86 328.553 139.413 328.431 138.967 328.269C138.56 328.147 138.195 328.025 137.788 327.903C130.719 325.668 123.771 322.865 116.905 319.534C108.698 315.512 101.019 310.84 93.8684 305.6C93.0558 304.99 92.2433 304.381 91.4307 303.771C90.8619 303.325 90.2931 302.878 89.7243 302.431C89.5617 302.309 89.3992 302.187 89.2367 302.025C71.9288 288.253 57.8712 270.824 48.0389 251.121C47.8358 250.715 47.6327 250.268 47.4295 249.862C47.2264 249.455 47.0638 249.049 46.8607 248.683C46.495 247.912 46.1294 247.14 45.8043 246.408C45.7231 246.246 45.6418 246.083 45.5606 245.921C40.1569 233.936 36.2972 221.261 34.1438 208.302C87.5709 249.13 131.694 247.262 197.391 227.071C229.569 218.052 271.295 190.589 332.604 210.455C331.629 215.899 330.37 221.18 328.826 226.38C328.663 226.949 328.501 227.518 328.338 228.046C328.216 228.371 328.135 228.696 328.013 229.061C327.973 229.183 327.932 229.305 327.891 229.427C271.173 212.486 232.82 238.161 203.038 246.815C154.812 262.13 113.452 270.052 63.2342 240.924L64.453 242.102C105.326 282.321 143.72 287.724 214.049 272.206C245.008 265.624 283.443 251.121 314.484 259.612ZM38.9787 138.223C41.2539 131.032 44.0979 123.882 47.5108 116.895C51.4924 108.77 56.1241 101.173 61.2434 94.1039C61.4465 93.8195 61.6496 93.5757 61.8122 93.332C62.2591 92.7226 62.7466 92.0726 63.1935 91.4632C63.6811 90.8538 64.1686 90.2445 64.6156 89.5944C64.8187 89.3507 64.9812 89.1069 65.1844 88.8632C77.2918 73.7505 92.162 61.1161 108.942 51.6503C109.064 51.5691 109.226 51.4878 109.389 51.4066C110.201 50.9597 111.014 50.5128 111.867 50.066C112.355 49.8222 112.842 49.5378 113.33 49.2941C113.817 49.0503 114.305 48.7659 114.792 48.5222C115.646 48.1159 116.458 47.6691 117.311 47.2628C117.474 47.1816 117.596 47.1003 117.758 47.0597C135.107 38.7315 153.959 33.6939 173.298 32.3533C173.623 32.3127 173.908 32.3127 174.233 32.3127C175.004 32.272 175.776 32.2314 176.589 32.1908C177.361 32.1502 178.133 32.1095 178.905 32.1095C179.23 32.1095 179.555 32.0689 179.88 32.0689C188.615 31.8658 197.513 32.4345 206.451 33.7752C213.561 34.8721 220.509 36.4565 227.213 38.4471C227.538 38.569 227.903 38.6502 228.228 38.7721C228.675 38.894 229.122 39.0565 229.569 39.1784C236.517 41.4128 243.424 44.1753 250.168 47.4659C258.294 51.4472 265.932 56.0785 273.002 61.2379C273.245 61.4004 273.448 61.5629 273.692 61.7661C274.342 62.2536 274.952 62.7004 275.602 63.188C276.171 63.6348 276.78 64.0817 277.349 64.5286C277.593 64.7317 277.836 64.9349 278.08 65.0974C293.357 77.3256 306.114 92.357 315.621 109.338C315.703 109.46 315.743 109.582 315.824 109.704C316.271 110.476 316.678 111.288 317.125 112.06C317.368 112.467 317.572 112.913 317.775 113.32C318.059 113.848 318.303 114.335 318.587 114.863C318.953 115.635 319.359 116.367 319.725 117.138C319.806 117.342 319.928 117.545 320.009 117.748C328.379 135.135 333.376 154.026 334.676 173.364C334.717 173.77 334.717 174.136 334.758 174.542C334.798 175.233 334.839 175.964 334.879 176.655C335.123 182.545 335.042 188.517 334.595 194.53C288.278 162.923 217.502 194.53 162.572 202.939C112.07 212.608 74.6103 202.655 32.8031 168.773C33.0875 166.011 33.4125 163.289 33.8188 160.526C34.997 152.889 36.7441 145.454 38.9787 138.223Z" fill="url(#paint0_linear_74_364)"/>
<defs>
<linearGradient id="paint0_linear_74_364" x1="183.5" y1="0" x2="183.5" y2="367" gradientUnits="userSpaceOnUse">
<stop stop-color="#407190"/>
<stop offset="1" stop-color="#00416B"/>
</linearGradient>
</defs>
</svg>
