<svg width="213" height="213" viewBox="0 0 213 213" fill="none" xmlns="http://www.w3.org/2000/svg">
<path fill-rule="evenodd" clip-rule="evenodd" d="M208.129 138.342C204.592 149.684 199.239 160.129 192.471 169.371C192.33 169.56 192.188 169.749 192.071 169.914C191.74 170.362 191.41 170.786 191.08 171.234C190.75 171.658 190.42 172.106 190.066 172.531C189.925 172.696 189.783 172.884 189.665 173.05C181.059 183.848 170.565 192.643 158.917 199.198C158.822 199.245 158.704 199.316 158.61 199.363C158.044 199.693 157.455 199.999 156.889 200.306C156.559 200.495 156.205 200.66 155.851 200.848C155.497 201.037 155.167 201.202 154.814 201.391C154.224 201.697 153.635 201.98 153.045 202.263C152.951 202.31 152.833 202.357 152.739 202.404C140.689 208.228 127.484 211.812 113.713 212.732C113.501 212.755 113.265 212.755 113.053 212.779C112.511 212.802 111.968 212.85 111.426 212.873C110.884 212.897 110.341 212.92 109.799 212.944C109.563 212.944 109.351 212.967 109.115 212.967C97.655 213.25 86.0535 211.694 74.7114 208.134C63.3693 204.597 52.9232 199.245 43.6797 192.478C43.4911 192.337 43.3024 192.219 43.1374 192.077C42.6893 191.747 42.2649 191.417 41.8169 191.087C41.3924 190.757 40.9444 190.427 40.52 190.073C40.3549 189.932 40.1662 189.79 40.0012 189.672C29.2014 181.066 20.406 170.574 13.8506 158.926C13.8035 158.832 13.7327 158.714 13.6856 158.62C13.3554 158.054 13.0489 157.464 12.7424 156.898C12.5537 156.568 12.3887 156.215 12.2 155.861C12.0114 155.507 11.8463 155.177 11.6577 154.824C11.3511 154.234 11.0682 153.645 10.7852 153.055C10.738 152.961 10.6909 152.843 10.6437 152.749C4.7958 140.677 1.18801 127.473 0.268378 113.703C0.244798 113.491 0.244798 113.255 0.221217 113.043C0.197637 112.501 0.150476 111.958 0.126896 111.416C0.103316 110.874 0.0797355 110.331 0.0561552 109.789C0.0561552 109.553 0.0325749 109.341 0.0325749 109.105C-0.250389 97.6464 1.30591 86.0459 4.86654 74.7048C8.40358 63.3637 13.7563 52.9185 20.5239 43.6758C20.6653 43.4872 20.8068 43.2986 20.9247 43.1336C21.2548 42.6856 21.585 42.2612 21.9151 41.8132C22.2452 41.3888 22.5753 40.9408 22.929 40.5164C23.0705 40.3513 23.212 40.1627 23.3299 39.9976C31.9367 29.1988 42.43 20.4042 54.0786 13.8494C54.1729 13.8023 54.2908 13.7315 54.3852 13.6844C54.9511 13.3543 55.5406 13.0477 56.1065 12.7412C56.4367 12.5526 56.7904 12.3876 57.1441 12.1989C57.4742 12.0103 57.8279 11.8453 58.1816 11.6566C58.7711 11.3501 59.3606 11.0672 59.9501 10.7842C60.0444 10.7371 60.1623 10.6899 60.2567 10.6428C72.3298 4.79537 85.5583 1.1879 99.3292 0.268354C99.5414 0.244776 99.7773 0.244776 99.9895 0.221198C100.532 0.19762 101.074 0.150463 101.617 0.126885C102.159 0.103307 102.701 0.0797285 103.244 0.0561502C103.479 0.0561502 103.692 0.032572 103.927 0.032572C115.387 -0.250367 126.989 1.3058 138.331 4.86611C149.673 8.40284 160.119 13.7551 169.363 20.522C169.551 20.6635 169.74 20.805 169.905 20.9229C170.353 21.253 170.778 21.5831 171.226 21.9132C171.65 22.2433 172.098 22.5733 172.522 22.927C172.688 23.0685 172.876 23.21 173.041 23.3279C183.841 31.9339 192.636 42.4262 199.192 54.0738C199.239 54.1682 199.31 54.286 199.357 54.3804C199.687 54.9462 199.994 55.5357 200.3 56.1016C200.489 56.4317 200.654 56.7853 200.842 57.139C201.031 57.4927 201.196 57.8228 201.385 58.1765C201.691 58.7659 201.974 59.3554 202.257 59.9448C202.304 60.0391 202.352 60.157 202.399 60.2513C208.223 72.2998 211.807 85.5036 212.727 99.2733C212.75 99.4855 212.75 99.7213 212.774 99.9335C212.798 100.476 212.845 101.018 212.868 101.56C212.892 102.103 212.916 102.645 212.939 103.187C212.939 103.423 212.963 103.635 212.963 103.871C213.269 115.401 211.689 127.001 208.129 138.342ZM76.6214 52.6827C76.6214 52.6827 76.4799 52.7535 76.4328 52.8006C63.7701 59.8741 54.5502 70.7672 49.4805 83.2401C47.0045 89.2997 45.519 95.7366 45.0474 102.291C46.9102 103.282 48.7966 104.178 50.7538 104.956C58.5117 107.809 66.4583 109.318 74.9944 109.553C84.8038 109.412 94.7075 106.936 103.88 101.843C116.661 94.7698 125.928 83.8296 131.045 71.2859C131.823 71.8282 132.601 72.4177 133.356 73.0072L133.497 73.125L133.639 73.2429L133.686 73.2665L133.874 73.4316L134.346 73.8324L134.37 73.856C137.718 76.7325 140.571 80.0806 142.882 83.806L142.906 83.8531L142.929 83.9003L142.953 83.9239L142.976 83.971L143 84.0182L143.047 84.0889L143.071 84.1361L143.094 84.1832L143.189 84.3247L143.212 84.3719L143.236 84.419L143.259 84.4662L143.283 84.5133L143.306 84.5605L143.377 84.6784L143.401 84.7255L143.424 84.7727L143.448 84.8198L143.472 84.867L143.495 84.9142L143.519 84.9613L143.542 85.0085L143.566 85.0556L143.589 85.1028L143.613 85.1499L143.637 85.1971L143.967 85.763C145.193 87.9793 146.207 90.2664 147.009 92.6007H147.032C147.622 94.2747 148.093 95.9959 148.471 97.7407C153.776 96.5854 160.025 95.9723 167.146 96.4911C165.944 89.2997 163.468 82.4384 159.931 76.2374L159.86 76.1195L159.483 75.4829L159.459 75.4593C158.138 73.1722 156.676 71.0266 155.097 68.9753L155.073 68.9281C149.673 61.9254 142.953 56.3374 135.454 52.3291C135.761 47.9199 135.596 43.4636 134.912 39.0309C130.856 37.0975 123.758 34.9048 116.59 34.0324C117.109 38.0407 117.203 42.049 116.944 46.0337C103.597 43.558 89.4019 45.6093 76.6214 52.6827ZM94.849 85.5979C85.7234 90.6437 75.5603 92.0112 66.081 90.2193L66.6469 90.3136C70.184 81.5896 76.5978 73.9739 85.4404 69.0224L85.6055 68.9281C94.5424 63.9767 104.47 62.562 113.808 64.2125C113.831 64.1889 108.738 77.9114 94.849 85.5979ZM182.521 150.674C180.941 153.385 179.243 156.002 177.427 158.502C177.404 158.525 177.38 158.549 177.38 158.573C176.979 159.115 176.578 159.634 176.177 160.176C175.918 160.506 175.659 160.836 175.399 161.166C175.305 161.284 175.211 161.402 175.116 161.52C168.042 170.314 159.365 177.671 149.579 183.165C149.437 183.235 149.296 183.33 149.154 183.4C148.824 183.589 148.494 183.754 148.188 183.943C147.74 184.178 147.268 184.438 146.796 184.674C146.749 184.697 146.702 184.721 146.631 184.744C135.36 190.497 122.933 193.822 110.223 194.364C109.94 194.364 109.681 194.388 109.398 194.388C109.091 194.388 108.809 194.411 108.502 194.411C103.479 194.529 98.3624 194.199 93.2219 193.398C89.1897 192.785 85.2518 191.889 81.4318 190.757C81.1724 190.686 80.913 190.615 80.6536 190.521C80.4178 190.45 80.2056 190.38 79.9698 190.309C75.8668 189.012 71.8346 187.385 67.8495 185.452C63.0863 183.117 58.6296 180.406 54.4795 177.364C54.0079 177.011 53.5363 176.657 53.0647 176.303C52.7345 176.044 52.4044 175.785 52.0743 175.525C51.98 175.455 51.8857 175.384 51.7913 175.289C41.7461 167.296 33.5873 157.181 27.8809 145.746C27.763 145.51 27.6451 145.251 27.5272 145.015C27.4093 144.779 27.315 144.543 27.1971 144.331C26.9849 143.883 26.7726 143.435 26.584 143.011C26.5368 142.917 26.4897 142.822 26.4425 142.728C23.3063 135.772 21.0662 128.416 19.8164 120.895C50.8245 144.591 76.4328 143.506 114.562 131.788C133.238 126.553 157.455 110.614 193.037 122.144C192.471 125.304 191.74 128.369 190.844 131.387C190.75 131.717 190.656 132.047 190.561 132.354C190.491 132.542 190.443 132.731 190.373 132.943C190.349 133.014 190.326 133.084 190.302 133.155C157.384 123.323 135.124 138.225 117.84 143.247C89.8499 152.136 65.8452 156.733 36.6999 139.828L37.4073 140.512C61.1291 163.854 83.4125 166.99 124.23 157.983C142.198 154.163 164.505 145.746 182.521 150.674ZM22.6225 80.2221C23.943 76.0488 25.5936 71.899 27.5744 67.8435C29.8852 63.1279 32.5734 58.7188 35.5445 54.6161C35.6624 54.4511 35.7803 54.3096 35.8746 54.1682C36.134 53.8145 36.417 53.4372 36.6764 53.0836C36.9593 52.7299 37.2423 52.3762 37.5017 51.999C37.6196 51.8575 37.7139 51.716 37.8318 51.5746C44.8587 42.8035 53.4891 35.4706 63.2278 29.9769C63.2985 29.9298 63.3928 29.8826 63.4872 29.8354C63.9588 29.5761 64.4304 29.3167 64.9256 29.0574C65.2085 28.9159 65.4915 28.7508 65.7745 28.6094C66.0574 28.4679 66.3404 28.3029 66.6233 28.1614C67.1185 27.9256 67.5901 27.6662 68.0853 27.4305C68.1796 27.3833 68.2504 27.3361 68.3447 27.3126C78.4135 22.479 89.3548 19.5553 100.579 18.7773C100.768 18.7537 100.933 18.7537 101.121 18.7537C101.569 18.7301 102.017 18.7065 102.489 18.6829C102.937 18.6594 103.385 18.6358 103.833 18.6358C104.022 18.6358 104.21 18.6122 104.399 18.6122C109.469 18.4943 114.633 18.8244 119.821 19.6025C123.947 20.2391 127.979 21.1587 131.87 22.314C132.059 22.3847 132.271 22.4319 132.46 22.5026C132.719 22.5733 132.978 22.6677 133.238 22.7384C137.27 24.0352 141.279 25.6385 145.193 27.5484C149.909 29.859 154.342 32.5469 158.445 35.5414C158.587 35.6357 158.704 35.73 158.846 35.8479C159.223 36.1308 159.577 36.3902 159.954 36.6731C160.284 36.9325 160.638 37.1918 160.968 37.4512C161.11 37.5691 161.251 37.687 161.393 37.7813C170.259 44.8783 177.663 53.6023 183.181 63.458C183.228 63.5287 183.252 63.5994 183.299 63.6702C183.558 64.1182 183.794 64.5897 184.053 65.0377C184.195 65.2735 184.313 65.5329 184.431 65.7686C184.596 66.0752 184.737 66.3581 184.902 66.6646C185.114 67.1126 185.35 67.537 185.562 67.985C185.61 68.1029 185.68 68.2208 185.727 68.3387C190.585 78.4301 193.485 89.394 194.24 100.617C194.263 100.853 194.264 101.065 194.287 101.301C194.311 101.702 194.334 102.126 194.358 102.527C194.499 105.946 194.452 109.412 194.193 112.902C167.311 94.5576 126.234 112.901 94.3538 117.782C65.0435 123.394 43.3024 117.617 19.0383 97.9529C19.2034 96.3496 19.392 94.7699 19.6278 93.1665C20.3116 88.7338 21.3256 84.419 22.6225 80.2221Z" fill="white"/>
</svg>
